<svg width="26" height="26" viewBox="0 0 26 26" fill="none" xmlns="http://www.w3.org/2000/svg">
  <path
    d="M16.25 9.75L14.752 6.69805C14.4381 5.99219 14.4381 5.99219 13.4062 5.99219C12.7329 5.99219 12.6567 5.99219 12.2383 6.36289L8.59727 9.87187C8.17578 10.301 8.125 10.3518 8.125 11.2227C8.125 11.8661 8.31695 11.9646 9.06496 12.3855L12.1875 14.1172V18.6875H13.8125V12.8984C13.8125 12.8984 12.3398 12.0352 11.3598 11.375L13.843 8.75977C14.7926 10.207 15.2293 11.375 15.7727 11.375H19.5V9.75H16.25Z"
    fill="currentColor" />
  <path
    d="M19.7031 22.75C18.7791 22.75 17.8759 22.476 17.1076 21.9626C16.3393 21.4493 15.7405 20.7197 15.3869 19.866C15.0333 19.0123 14.9408 18.0729 15.121 17.1667C15.3013 16.2604 15.7462 15.428 16.3996 14.7746C17.053 14.1212 17.8854 13.6763 18.7917 13.496C19.6979 13.3158 20.6373 13.4083 21.491 13.7619C22.3447 14.1155 23.0743 14.7143 23.5876 15.4826C24.101 16.2509 24.375 17.1541 24.375 18.0781C24.3737 19.3168 23.881 20.5043 23.0052 21.3802C22.1293 22.256 20.9418 22.7487 19.7031 22.75V22.75ZM19.7031 15.0313C19.1005 15.0313 18.5114 15.2099 18.0104 15.5447C17.5093 15.8795 17.1188 16.3554 16.8882 16.9121C16.6576 17.4689 16.5972 18.0815 16.7148 18.6725C16.8324 19.2636 17.1225 19.8065 17.5487 20.2326C17.9748 20.6587 18.5177 20.9489 19.1087 21.0665C19.6997 21.184 20.3124 21.1237 20.8691 20.8931C21.4259 20.6625 21.9017 20.2719 22.2365 19.7709C22.5713 19.2698 22.75 18.6807 22.75 18.0781C22.7491 17.2703 22.4278 16.4959 21.8566 15.9247C21.2854 15.3535 20.5109 15.0322 19.7031 15.0313V15.0313Z"
    fill="currentColor" />
  <path
    d="M6.29688 22.75C5.37287 22.75 4.46961 22.476 3.70132 21.9626C2.93304 21.4493 2.33423 20.7197 1.98063 19.866C1.62702 19.0123 1.53451 18.0729 1.71477 17.1667C1.89504 16.2604 2.33999 15.428 2.99336 14.7746C3.64674 14.1212 4.47918 13.6763 5.38544 13.496C6.29169 13.3158 7.23105 13.4083 8.08473 13.7619C8.9384 14.1155 9.66805 14.7143 10.1814 15.4826C10.6948 16.2509 10.9688 17.1541 10.9688 18.0781C10.9674 19.3168 10.4748 20.5043 9.59891 21.3802C8.72305 22.256 7.53552 22.7487 6.29688 22.75V22.75ZM6.29688 15.0313C5.69426 15.0313 5.10518 15.2099 4.60412 15.5447C4.10307 15.8795 3.71254 16.3554 3.48193 16.9121C3.25132 17.4689 3.19098 18.0815 3.30855 18.6725C3.42611 19.2636 3.7163 19.8065 4.14241 20.2326C4.56852 20.6587 5.11142 20.9489 5.70246 21.0665C6.2935 21.184 6.90612 21.1237 7.46286 20.8931C8.01961 20.6625 8.49547 20.2719 8.83026 19.7709C9.16506 19.2698 9.34375 18.6807 9.34375 18.0781C9.34281 17.2703 9.0215 16.4959 8.4503 15.9247C7.87911 15.3535 7.10467 15.0322 6.29688 15.0313V15.0313Z"
    fill="currentColor" />
  <path
    d="M16.2498 6.49999C16.4638 6.50074 16.6759 6.45904 16.8737 6.37732C17.0715 6.2956 17.2512 6.17548 17.4023 6.0239C17.5534 5.87232 17.673 5.69228 17.7541 5.49421C17.8352 5.29613 17.8762 5.08394 17.8748 4.86991C17.8772 4.65695 17.8371 4.44566 17.7568 4.24838C17.6766 4.05111 17.5578 3.87181 17.4074 3.72098C17.2571 3.57015 17.0782 3.45081 16.8811 3.36994C16.6841 3.28907 16.4729 3.24829 16.26 3.24999C16.0466 3.24932 15.8351 3.29069 15.6377 3.37174C15.4403 3.45279 15.2608 3.57193 15.1094 3.72235C14.9581 3.87278 14.8378 4.05154 14.7555 4.24844C14.6732 4.44534 14.6306 4.65652 14.6299 4.86991C14.6292 5.08331 14.6706 5.29475 14.7516 5.49216C14.8327 5.68957 14.9518 5.86908 15.1023 6.02045C15.2527 6.17182 15.4314 6.29207 15.6283 6.37435C15.8252 6.45663 16.0364 6.49933 16.2498 6.49999V6.49999Z"
    fill="currentColor" />
</svg>